# xmcd
#
# Track frame offsets:
#	150
#	17995
#	40871
#	61134
#	79951
#	94070
#	110693
#	131366
#	151437
#	174146
#	203177
#
# Disc length: 3016 seconds
#
# Revision: 1
# Processed by: cddbd v1.4PL0 Copyright (c) Steve Scherf et al.
# Submitted via: audiograbber 1.80
#
DISCID=890bc60b
DTITLE=john lee hooker - blues legends
DYEAR=1900
DGENRE=
TTITLE0=battle of wine
TTITLE1=baby don't do me wrong
TTITLE2=baby baby
TTITLE3=i feel good
TTITLE4=going home
TTITLE5=we are cooking
TTITLE6=loking back over my day
TTITLE7=dazie mae
TTITLE8=stand back
TTITLE9=call it the night
TTITLE10=roll and rumble
EXTD=
EXTT0=
EXTT1=
EXTT2=
EXTT3=
EXTT4=
EXTT5=
EXTT6=
EXTT7=
EXTT8=
EXTT9=
EXTT10=
PLAYORDER=
